<?xml version="1.0" encoding="iso-8859-1"?>
<!-- Uploaded to: SVG Repo, www.svgrepo.com, Generator: SVG Repo Mixer Tools -->
<svg height="800px" width="800px" version="1.1" id="Layer_1" xmlns="http://www.w3.org/2000/svg" xmlns:xlink="http://www.w3.org/1999/xlink" 
	 viewBox="0 0 512.001 512.001" xml:space="preserve">
<path style="fill:#D8D8DA;" d="M356.038,349.44c-2.427,0-4.824,0.128-7.199,0.338L146.896,0
	c-35.886,20.718-48.183,66.606-27.464,102.49l166.15,287.782c-6.87,11.922-10.824,25.728-10.824,40.449
	c0,44.818,36.462,81.28,81.28,81.28s81.28-36.462,81.28-81.28S400.855,349.44,356.038,349.44z M356.038,474.486
	c-24.133,0-43.766-19.633-43.766-43.766s19.633-43.766,43.766-43.766s43.766,19.633,43.766,43.766S380.17,474.486,356.038,474.486z"
	/>
<path style="fill:#EDEDED;" d="M365.106,0L163.162,349.778c-2.373-0.21-4.771-0.338-7.199-0.338c-44.818,0-81.28,36.462-81.28,81.28
	S111.145,512,155.963,512s81.28-36.462,81.28-81.28c0-14.719-3.954-28.527-10.824-40.449l166.15-287.781
	C413.288,66.606,400.991,20.718,365.106,0z M155.964,474.486c-24.133,0-43.766-19.633-43.766-43.766s19.633-43.766,43.766-43.766
	s43.766,19.633,43.766,43.766S180.096,474.486,155.964,474.486z"/>
<path style="fill:#C6C5CA;" d="M356.038,349.44c-2.427,0-4.824,0.128-7.199,0.338l-92.838-160.802v150.06l29.581,51.236
	c-6.87,11.922-10.824,25.728-10.824,40.449c0,44.818,36.462,81.28,81.28,81.28s81.28-36.462,81.28-81.28
	S400.855,349.44,356.038,349.44z M356.038,474.486c-24.133,0-43.766-19.633-43.766-43.766s19.633-43.766,43.766-43.766
	s43.766,19.633,43.766,43.766S380.17,474.486,356.038,474.486z"/>
<path style="fill:#D8D8DA;" d="M365.106,0L256.001,188.976v150.06L392.569,102.49C413.288,66.606,400.991,20.718,365.106,0z"/>
</svg>